<?xml version="1.0" standalone="no"?>
<!DOCTYPE svg PUBLIC "-//W3C//DTD SVG 20010904//EN"
 "http://www.w3.org/TR/2001/REC-SVG-20010904/DTD/svg10.dtd">
<svg version="1.0" xmlns="http://www.w3.org/2000/svg"
 width="128.000000pt" height="128.000000pt" viewBox="0 0 128.000000 128.000000"
 preserveAspectRatio="xMidYMid meet">
<metadata>
Created by potrace 1.11, written by Peter Selinger 2001-2013
</metadata>
<g transform="translate(0.000000,128.000000) scale(0.100000,-0.100000)"
fill="#000000" stroke="none">
<path d="M428 1248 c-1 -18 -2 -51 -4 -73 -2 -33 0 -36 9 -20 16 28 22 125 8
125 -6 0 -12 -15 -13 -32z"/>
<path d="M550 1260 c0 -11 5 -20 10 -20 6 0 10 9 10 20 0 11 -4 20 -10 20 -5
0 -10 -9 -10 -20z"/>
<path d="M1013 1273 c-7 -3 -13 -13 -13 -23 0 -10 -5 -22 -11 -26 -8 -5 -6
-10 5 -16 9 -5 14 -14 11 -19 -4 -5 -10 -7 -15 -4 -4 3 -13 -2 -20 -10 -7 -8
-20 -15 -29 -15 -10 0 -26 -7 -37 -15 -19 -15 -19 -16 1 -13 11 2 22 6 25 9 3
4 15 9 26 13 19 6 21 3 16 -19 -2 -15 0 -25 7 -25 6 0 11 -7 11 -16 0 -12 4
-14 13 -7 6 6 19 11 27 12 88 7 123 24 114 56 -4 11 -6 22 -6 25 0 22 6 27 32
28 17 0 28 -4 25 -9 -4 -5 -17 -9 -31 -9 -14 0 -22 -4 -19 -10 3 -5 15 -10 26
-10 11 0 18 -3 15 -8 -2 -4 1 -18 8 -31 9 -15 16 -20 20 -12 10 15 46 14 46
-1 -1 -29 -16 -39 -43 -29 -15 6 -27 7 -27 1 0 -5 -10 -10 -22 -12 -13 -2 -22
-9 -20 -17 3 -12 1 -12 -13 -1 -9 7 -15 9 -14 4 5 -26 -4 -34 -35 -34 -19 0
-38 5 -41 10 -4 7 -11 6 -20 -2 -44 -39 -45 -40 -45 -17 0 31 -12 16 -15 -18
-3 -38 -26 -84 -37 -77 -5 4 -7 17 -4 30 6 23 -2 30 -28 25 -5 -1 -6 5 -3 14
4 8 2 15 -2 15 -5 0 -11 -4 -13 -10 -2 -6 -9 -6 -17 0 -11 6 -7 11 18 22 l33
13 -35 40 c-32 37 -43 42 -111 54 -42 8 -94 11 -119 7 -46 -7 -112 -44 -160
-90 -29 -29 -97 -153 -76 -140 9 5 10 1 5 -17 -20 -69 -18 -257 2 -246 4 2 14
-4 24 -14 15 -16 15 -18 -5 -24 -12 -4 -27 -7 -33 -6 -12 1 -13 -44 -1 -56 4
-4 19 5 33 20 14 15 29 27 34 27 23 0 6 -29 -49 -83 l-57 -59 7 -56 c8 -60 -2
-87 -51 -140 -20 -21 -20 -24 -6 -54 15 -29 22 -68 11 -56 -5 5 -105 -88 -105
-98 0 -3 4 -2 10 1 5 3 10 1 10 -4 0 -6 -6 -11 -13 -11 -8 0 -14 -7 -14 -15 0
-13 28 -15 190 -15 l189 0 -5 22 -6 23 19 -22 c17 -22 25 -23 155 -23 l136 0
-8 23 c-9 25 -9 50 1 234 4 86 3 134 -4 138 -6 4 -10 -10 -11 -34 -2 -57 -3
-61 -14 -62 -5 -1 -23 30 -40 68 -16 38 -38 80 -47 94 l-18 24 10 -28 c25 -70
13 -77 -82 -51 -54 15 -58 19 -64 51 -5 25 -16 41 -38 54 -38 23 -90 86 -74
91 6 2 12 20 13 38 2 19 6 57 10 83 6 37 4 55 -10 81 -22 41 -14 86 15 86 39
0 45 -41 20 -153 -7 -31 -4 -48 14 -85 12 -26 28 -48 34 -50 9 -1 8 4 -2 20
-14 22 -20 103 -9 122 3 4 9 2 14 -5 6 -9 9 -1 9 25 0 22 3 36 7 33 3 -4 11 3
17 14 12 23 33 26 28 5 -3 -19 38 -28 45 -10 4 11 9 12 19 3 11 -9 14 -8 15 2
1 14 2 21 14 87 4 20 12 32 22 32 13 0 15 -8 9 -52 -3 -29 -9 -63 -12 -75 -7
-26 25 -40 55 -24 14 8 20 7 24 -3 4 -9 0 -12 -12 -9 -10 2 -23 -3 -31 -12
-16 -20 -5 -32 15 -15 11 9 15 9 15 1 0 -19 -50 -100 -69 -114 -10 -6 -20 -24
-23 -40 -4 -20 -2 -25 7 -17 13 11 25 4 25 -14 0 -6 -4 -5 -9 3 -7 10 -9 7 -8
-11 2 -21 5 -24 18 -17 9 4 24 20 33 34 10 16 23 24 32 21 10 -4 14 3 15 22 1
15 2 32 3 37 2 16 46 60 59 60 18 0 35 73 36 152 1 39 4 78 7 87 7 17 34 10
34 -9 0 -8 4 -16 8 -19 5 -3 6 8 4 25 -3 22 0 29 13 29 12 0 15 5 10 21 -9 29
16 21 31 -10 8 -16 13 -19 17 -9 3 7 6 3 6 -9 1 -26 16 -30 25 -7 5 14 8 14
21 0 8 -8 15 -19 15 -25 0 -6 7 -11 16 -11 10 0 14 -7 12 -22 -2 -15 -14 -24
-43 -33 -37 -10 -38 -12 -20 -22 20 -11 19 -12 -4 -37 -31 -32 -23 -43 12 -16
29 23 43 25 53 8 4 -6 3 -9 -2 -6 -5 4 -10 -5 -10 -19 -2 -28 0 -27 20 12 10
20 12 33 5 41 -7 9 -4 16 9 26 11 7 22 22 24 33 4 17 7 16 17 -10 9 -22 10
-35 2 -47 -16 -26 -13 -38 8 -38 12 0 21 -8 24 -22 2 -13 5 25 6 85 0 59 -3
107 -8 107 -5 0 -11 14 -14 30 -5 24 -12 30 -32 30 -21 0 -25 -5 -25 -29 0
-16 5 -31 12 -33 15 -5 1 -28 -18 -28 -11 0 -13 6 -9 20 4 13 1 22 -9 26 -11
4 -13 11 -6 29 6 15 6 27 0 30 -18 11 -10 23 21 34 25 9 29 8 21 -2 -8 -10 -6
-13 8 -14 11 -1 22 2 25 8 10 15 28 10 22 -6 -4 -8 -2 -17 3 -20 6 -4 10 42
10 119 l0 126 -127 -1 c-71 -1 -134 -3 -140 -6z m97 -67 c0 -8 -4 -18 -10 -21
-5 -3 -10 3 -10 14 0 12 5 21 10 21 6 0 10 -6 10 -14z m13 -43 c15 -8 6 -31
-13 -36 -22 -6 -64 29 -54 45 5 7 47 2 67 -9z m-442 -292 c7 11 9 10 9 -3 0
-13 -8 -18 -26 -18 -23 0 -25 2 -13 16 9 12 14 13 17 4 3 -9 7 -9 13 1z m54
-31 c3 -5 1 -10 -4 -10 -6 0 -11 5 -11 10 0 6 2 10 4 10 3 0 8 -4 11 -10z
m-318 -152 c-2 -13 -4 -3 -4 22 0 25 2 35 4 23 2 -13 2 -33 0 -45z"/>
<path d="M855 1120 c-3 -5 -2 -10 4 -10 5 0 13 5 16 10 3 6 2 10 -4 10 -5 0
-13 -4 -16 -10z"/>
<path d="M1147 1109 c7 -7 15 -10 18 -7 3 3 -2 9 -12 12 -14 6 -15 5 -6 -5z"/>
<path d="M948 1081 c-23 -23 -23 -30 2 -24 11 3 20 14 20 24 0 23 0 23 -22 0z"/>
<path d="M187 740 c-3 -11 -2 -22 2 -24 4 -3 8 6 9 20 2 29 -4 31 -11 4z"/>
<path d="M1206 724 c-9 -24 -7 -31 9 -38 11 -4 15 2 15 24 0 32 -14 40 -24 14z"/>
<path d="M1265 730 c-4 -6 -11 -8 -16 -5 -5 4 -9 2 -9 -4 0 -5 9 -9 20 -8 11
1 20 7 20 14 0 16 -6 17 -15 3z"/>
<path d="M181 653 c0 -30 3 -53 9 -53 11 0 11 31 0 75 -7 26 -8 22 -9 -22z"/>
<path d="M312 513 c2 -98 -1 -194 -6 -213 -8 -33 -8 -34 9 -18 15 14 19 40 22
169 5 155 -1 239 -17 239 -6 0 -9 -76 -8 -177z"/>
<path d="M1151 680 c-1 -3 10 -39 23 -81 35 -110 35 -114 1 -143 -16 -14 -33
-26 -36 -26 -4 0 -10 -7 -13 -16 -10 -25 32 -7 64 29 l27 31 13 -24 c7 -14 12
-42 12 -63 -1 -23 2 -36 8 -32 6 3 10 1 10 -4 0 -6 4 -11 10 -11 5 0 9 18 7
40 -1 22 -5 40 -8 40 -16 0 -18 35 -4 56 8 13 15 30 15 38 0 13 -29 29 -55 31
-10 0 -34 42 -59 105 -8 19 -15 33 -15 30z"/>
<path d="M626 604 c-8 -22 -3 -26 24 -22 22 3 22 3 2 21 -18 17 -20 17 -26 1z"/>
<path d="M707 598 c-29 -10 -32 -31 -4 -36 8 -2 21 6 27 18 15 27 12 30 -23
18z"/>
<path d="M897 589 c-9 -6 -17 -18 -17 -27 0 -14 4 -13 22 6 24 24 22 36 -5 21z"/>
<path d="M862 489 c0 -27 3 -37 9 -28 12 19 11 56 0 64 -6 3 -10 -13 -9 -36z"/>
<path d="M666 491 c9 -10 44 -11 44 -1 0 5 -11 9 -25 8 -13 -1 -22 -4 -19 -7z"/>
<path d="M196 411 c-5 -14 -4 -27 3 -34 15 -15 18 -7 11 28 -6 29 -6 29 -14 6z"/>
<path d="M1042 366 c-16 -18 -16 -19 1 -13 15 5 16 2 11 -21 l-7 -27 20 20
c11 11 19 22 17 24 -2 2 3 12 12 22 14 16 13 17 -11 15 -15 0 -34 -10 -43 -20z"/>
<path d="M196 174 c-9 -23 -7 -134 2 -134 4 0 19 27 34 61 20 44 23 59 13 55
-10 -4 -15 1 -15 14 0 24 -25 27 -34 4z"/>
<path d="M982 111 c-7 -38 -14 -77 -18 -87 -5 -16 -4 -16 7 1 7 11 27 38 46
61 l33 41 -23 26 c-12 15 -25 27 -28 27 -3 0 -11 -31 -17 -69z"/>
<path d="M1139 150 c-1 -14 -3 -35 -4 -48 -1 -13 1 -20 5 -15 14 15 19 58 10
73 -8 12 -10 10 -11 -10z"/>
<path d="M1130 51 c0 -6 5 -13 10 -16 6 -3 10 1 10 9 0 9 -4 16 -10 16 -5 0
-10 -4 -10 -9z"/>
</g>
</svg>
